<svg width="657" height="658" viewBox="0 0 657 658" fill="none" xmlns="http://www.w3.org/2000/svg">
<path opacity="0.1" d="M328.305 657.356C509.623 657.356 656.61 510.369 656.61 329.051C656.61 147.733 509.623 0.746002 328.305 0.746002C146.987 0.746002 0 147.733 0 329.051C0 510.369 146.987 657.356 328.305 657.356Z" fill="#367CFF"/>
<path d="M555.459 137.3V510.8C555.459 515.062 553.766 519.149 550.753 522.162C547.739 525.176 543.652 526.869 539.39 526.869H67.219C62.9572 526.869 58.87 525.176 55.8565 522.162C52.843 519.149 51.15 515.062 51.15 510.8V210.22C51.1503 205.958 52.8433 201.871 55.8568 198.858C58.8702 195.844 62.9573 194.151 67.219 194.151H350.436C354.698 194.151 358.785 192.458 361.798 189.445C364.812 186.431 366.505 182.344 366.505 178.082V137.3C366.505 133.038 368.198 128.951 371.211 125.938C374.225 122.924 378.312 121.231 382.574 121.231H539.39C543.652 121.231 547.739 122.924 550.753 125.938C553.766 128.951 555.459 133.038 555.459 137.3Z" fill="#367CFF"/>
<path d="M539.39 527.868H67.22C62.6946 527.863 58.356 526.063 55.1559 522.863C51.9558 519.664 50.1556 515.325 50.15 510.8V210.22C50.1556 205.695 51.9558 201.356 55.1559 198.157C58.356 194.957 62.6946 193.157 67.22 193.152H350.437C354.432 193.147 358.263 191.558 361.087 188.733C363.912 185.908 365.502 182.077 365.506 178.082V137.3C365.511 132.775 367.311 128.436 370.511 125.236C373.71 122.036 378.049 120.236 382.574 120.231H539.39C543.915 120.236 548.254 122.036 551.454 125.236C554.654 128.436 556.454 132.775 556.459 137.3V510.8C556.454 515.325 554.654 519.664 551.454 522.863C548.254 526.063 543.915 527.863 539.39 527.868ZM67.22 195.152C63.2248 195.156 59.3945 196.745 56.5693 199.57C53.7441 202.395 52.1548 206.225 52.15 210.22V510.8C52.1545 514.795 53.7437 518.626 56.5689 521.451C59.3942 524.276 63.2247 525.865 67.22 525.869H539.39C543.385 525.865 547.215 524.275 550.04 521.45C552.865 518.625 554.454 514.795 554.459 510.8V137.3C554.454 133.305 552.865 129.475 550.04 126.65C547.215 123.825 543.385 122.236 539.39 122.231H382.574C378.579 122.236 374.749 123.825 371.924 126.65C369.099 129.475 367.51 133.305 367.506 137.3V178.079C367.501 182.605 365.701 186.943 362.501 190.143C359.301 193.344 354.963 195.144 350.437 195.149L67.22 195.152Z" fill="#262626"/>
<path d="M585.459 137.3V510.8C585.459 515.062 583.766 519.149 580.753 522.162C577.739 525.176 573.652 526.869 569.39 526.869H97.219C92.9572 526.869 88.87 525.176 85.8565 522.162C82.843 519.149 81.15 515.062 81.15 510.8V210.22C81.1503 205.958 82.8433 201.871 85.8568 198.858C88.8703 195.844 92.9573 194.151 97.219 194.151H380.436C384.698 194.151 388.785 192.458 391.798 189.445C394.812 186.431 396.505 182.344 396.505 178.082V137.3C396.505 133.038 398.198 128.951 401.211 125.938C404.225 122.924 408.312 121.231 412.574 121.231H569.39C573.652 121.231 577.739 122.924 580.753 125.938C583.766 128.951 585.459 133.038 585.459 137.3Z" fill="white"/>
<path d="M569.39 527.868H97.22C92.6946 527.863 88.356 526.063 85.1559 522.863C81.9558 519.664 80.1556 515.325 80.15 510.8V210.22C80.1556 205.695 81.9558 201.356 85.1559 198.157C88.356 194.957 92.6946 193.157 97.22 193.152H380.437C384.432 193.147 388.263 191.558 391.087 188.733C393.912 185.908 395.502 182.077 395.506 178.082V137.3C395.511 132.775 397.311 128.436 400.511 125.236C403.71 122.036 408.049 120.236 412.574 120.231H569.39C573.915 120.236 578.254 122.036 581.454 125.236C584.654 128.436 586.454 132.775 586.459 137.3V510.8C586.454 515.325 584.654 519.664 581.454 522.863C578.254 526.063 573.915 527.863 569.39 527.868ZM97.22 195.152C93.2248 195.156 89.3945 196.745 86.5693 199.57C83.7441 202.395 82.1548 206.225 82.15 210.22V510.8C82.1545 514.795 83.7437 518.626 86.5689 521.451C89.3942 524.276 93.2247 525.865 97.22 525.869H569.39C573.385 525.865 577.215 524.275 580.04 521.45C582.865 518.625 584.454 514.795 584.459 510.8V137.3C584.454 133.305 582.865 129.475 580.04 126.65C577.215 123.825 573.385 122.236 569.39 122.231H412.574C408.579 122.236 404.749 123.825 401.924 126.65C399.099 129.475 397.51 133.305 397.506 137.3V178.079C397.501 182.605 395.701 186.943 392.501 190.143C389.301 193.344 384.963 195.144 380.437 195.149L97.22 195.152Z" fill="#262626"/>
<path d="M295.206 325.724C301.343 325.724 306.318 320.749 306.318 314.612C306.318 308.475 301.343 303.5 295.206 303.5C289.069 303.5 284.094 308.475 284.094 314.612C284.094 320.749 289.069 325.724 295.206 325.724Z" fill="#292A2E"/>
<path d="M371.403 325.724C377.54 325.724 382.515 320.749 382.515 314.612C382.515 308.475 377.54 303.5 371.403 303.5C365.266 303.5 360.291 308.475 360.291 314.612C360.291 320.749 365.266 325.724 371.403 325.724Z" fill="#292A2E"/>
<path d="M348.203 343.602H318.406V345.602H348.203V343.602Z" fill="#262626"/>
<g opacity="0.1">
<path d="M283.743 346.398C289.218 346.398 293.656 344.062 293.656 341.181C293.656 338.3 289.218 335.964 283.743 335.964C278.268 335.964 273.83 338.3 273.83 341.181C273.83 344.062 278.268 346.398 283.743 346.398Z" fill="#367CFF"/>
<path d="M382.867 346.398C388.342 346.398 392.78 344.062 392.78 341.181C392.78 338.3 388.342 335.964 382.867 335.964C377.392 335.964 372.954 338.3 372.954 341.181C372.954 344.062 377.392 346.398 382.867 346.398Z" fill="#367CFF"/>
</g>
</svg>
